<svg width="145" height="31" viewBox="0 0 145 31" fill="none" xmlns="http://www.w3.org/2000/svg">
<g clip-path="url(#clip0_1_118784)">
<path d="M24.4858 3.38381V1.82623L18.6973 -0.0117188V1.62374L24.4858 3.38381Z" fill="#B99755"/>
<path d="M19.8939 1.39258V30.3449H5.16602V3.50155L19.8939 1.39258Z" fill="#0F0F0F"/>
<path d="M6.76562 3.27404V1.74449L18.296 0V1.623L6.76562 3.27404Z" fill="#B99755"/>
<path d="M19.0231 2.99023L6.03711 4.75653V7.0306L19.0231 5.42318V2.99023Z" fill="white"/>
<path d="M19.0231 6.04297L6.03711 7.6099V8.45722L19.0231 6.94948V6.04297Z" fill="#777777"/>
<path d="M13.2604 8.2207L11.8047 8.38581V13.6722L13.2604 13.5476V8.2207Z" fill="#777777"/>
<path d="M19.0231 13.6719L6.03711 14.7466V15.5939L19.0231 14.5784V13.6719Z" fill="#777777"/>
<path d="M13.2604 15.6328L11.8047 15.7418V21.0283L13.2604 20.9597V15.6328Z" fill="#777777"/>
<path d="M19.0231 21.2988L6.03711 21.8845V22.7318L19.0231 22.2053V21.2988Z" fill="#777777"/>
<path d="M13.2604 23.0391L11.8047 23.0951V28.3816L13.2604 28.366V23.0391Z" fill="#777777"/>
<path d="M11.3373 23.1115L6.03711 23.3108V28.4415L11.3373 28.3854V23.1115Z" fill="white"/>
<path d="M19.0228 22.8242L13.7227 23.0205V28.363L19.0228 28.3069V22.8242Z" fill="white"/>
<path d="M11.3373 15.7751L6.03711 16.1739V21.3046L11.3373 21.0491V15.7751Z" fill="white"/>
<path d="M19.0228 15.1953L13.7227 15.5941V20.9334L19.0228 20.6811V15.1953Z" fill="white"/>
<path d="M11.3373 8.43945L6.03711 9.04068V14.1682L11.3373 13.7134V8.43945Z" fill="white"/>
<path d="M19.0228 7.57031L13.7227 8.16842V13.5109L19.0228 13.053V7.57031Z" fill="white"/>
<path d="M4.85225 16.5762V22.2458C3.44012 22.7598 0.261274 23.8439 0.261274 24.3329L0 18.6041C0 17.274 3.0762 16.9157 4.85225 16.5762Z" fill="#0F0F0F"/>
<path d="M20.2988 1.39246V30.3448H27.2693V3.50142L20.2988 1.39246Z" fill="#0F0F0F"/>
<path d="M21.1699 3.125L26.3985 4.62651V6.91304L21.1699 5.54548V3.125Z" fill="white"/>
<path d="M21.1699 6.1582L26.3985 7.49149V8.34505L21.1699 7.0616V6.1582Z" fill="#777777"/>
<path d="M21.1699 13.75L26.3985 14.6659V15.5194L21.1699 14.6534V13.75Z" fill="#777777"/>
<path d="M21.1699 21.3418L26.3985 21.8402V22.6907L21.1699 22.2452V21.3418Z" fill="#777777"/>
<path d="M21.0977 22.8555L26.3978 23.2729V28.4316L21.0977 28.3164V22.8555Z" fill="white"/>
<path d="M21.0977 15.2578L26.3978 16.102V21.2576L21.0977 20.7187V15.2578Z" fill="white"/>
<path d="M21.0977 7.66406L26.3978 8.92882V14.0875L21.0977 13.1249V7.66406Z" fill="white"/>
<path d="M2.34837 19.6575C9.05443 20.1839 10.0311 20.1123 12.5319 19.6388C16.7776 18.8382 24.4852 16.9909 28.9331 14.1903C28.5288 13.5673 27.9067 12.5393 27.9067 12.5393L40.0031 11.2559L31.8258 21.2493C31.8258 21.2493 31.4743 20.3459 31.182 19.7166C26.4861 22.4536 21.3545 24.3599 16.0124 25.352C11.7895 26.2171 7.45199 26.3697 3.17885 25.8037C0.758943 25.4922 0.342145 24.623 0.261274 24.3333L0 18.6045C0.0839813 19.2151 1.43079 19.5858 2.34837 19.6575Z" fill="#B99755"/>
</g>
<path d="M45.8086 11.1495V10.6222H48.3164L58.3711 22.8097H58.3945L58.2305 11.2667L56.4375 11.1495V10.6222H60.7734V11.1495L58.9688 11.2667L59.0977 27.5792H58.3828L48.3281 15.3566H48.3047L48.4688 26.7003L50.2617 26.8175V27.3448H45.9258V26.8175L47.7305 26.7003L47.6016 11.2667L45.8086 11.1495ZM62.0977 21.462C62.0977 20.8527 62.1562 20.2589 62.2734 19.6808C62.3906 19.0948 62.582 18.5323 62.8477 17.9933C63.1133 17.4542 63.4375 16.9816 63.8203 16.5753C64.2031 16.1691 64.6758 15.8448 65.2383 15.6027C65.8086 15.3527 66.4375 15.2277 67.125 15.2277C67.7734 15.2277 68.3555 15.3214 68.8711 15.5089C69.3867 15.6886 69.8164 15.9425 70.1602 16.2706C70.5039 16.5988 70.7891 17.0011 71.0156 17.4777C71.2422 17.9464 71.4023 18.4581 71.4961 19.0128C71.5977 19.5597 71.6484 20.1613 71.6484 20.8175L71.332 21.1105H65.0977V21.8253C65.0977 25.2316 66.0664 26.9347 68.0039 26.9347C69.3789 26.9347 70.4766 26.2472 71.2969 24.8722L71.7539 25.1534C70.7461 26.8488 69.3125 27.6964 67.4531 27.6964C65.6562 27.6964 64.3125 27.1417 63.4219 26.0323C62.5391 24.923 62.0977 23.3995 62.0977 21.462ZM65.0977 20.5831L68.8828 20.4308C68.9062 20.0323 68.918 19.6495 68.918 19.2823C68.918 18.1495 68.7812 17.2784 68.5078 16.6691C68.2422 16.0597 67.7969 15.755 67.1719 15.755C66.7969 15.755 66.4727 15.88 66.1992 16.13C65.9336 16.3722 65.7266 16.7238 65.5781 17.1847C65.4297 17.6456 65.3164 18.1495 65.2383 18.6964C65.168 19.2355 65.1211 19.8644 65.0977 20.5831ZM77.5664 27.1222C78.457 27.1222 79.1133 26.9581 79.5352 26.63C79.9648 26.3019 80.1797 25.8917 80.1797 25.3995C80.1797 25.1417 80.1367 24.9152 80.0508 24.7198C79.9727 24.5167 79.8398 24.3253 79.6523 24.1456C79.4727 23.9581 79.2305 23.7706 78.9258 23.5831C78.6289 23.3878 78.2578 23.1691 77.8125 22.9269C77.4219 22.7003 77.0078 22.4659 76.5703 22.2238C76.1328 21.9738 75.7266 21.6886 75.3516 21.3683C74.9844 21.0402 74.6758 20.6613 74.4258 20.2316C74.1836 19.8019 74.0625 19.2863 74.0625 18.6847C74.0625 18.1534 74.1641 17.673 74.3672 17.2433C74.5703 16.8136 74.8516 16.4503 75.2109 16.1534C75.5781 15.8488 76.0117 15.6144 76.5117 15.4503C77.0195 15.2863 77.5742 15.2042 78.1758 15.2042C78.6289 15.2042 79.082 15.2628 79.5352 15.38C79.9961 15.4894 80.4102 15.6573 80.7773 15.8839C81.1445 16.1105 81.4414 16.3917 81.668 16.7277C81.8945 17.0636 82.0078 17.4542 82.0078 17.8995C82.0078 18.0714 81.9766 18.2394 81.9141 18.4034C81.8594 18.5675 81.7734 18.7159 81.6562 18.8488C81.5391 18.9816 81.3945 19.0909 81.2227 19.1769C81.0586 19.255 80.8672 19.2941 80.6484 19.2941C80.1953 19.2941 79.8555 19.1691 79.6289 18.9191C79.4023 18.6691 79.2891 18.3644 79.2891 18.005C79.2891 17.7784 79.3203 17.587 79.3828 17.4308C79.4453 17.2667 79.5273 17.1339 79.6289 17.0323C79.7383 16.923 79.8594 16.8448 79.9922 16.798C80.1328 16.7433 80.2734 16.7159 80.4141 16.7159H80.5195V16.6925C80.4414 16.5675 80.3281 16.4503 80.1797 16.3409C80.0312 16.2238 79.8555 16.1222 79.6523 16.0363C79.4492 15.9425 79.2227 15.8683 78.9727 15.8136C78.7227 15.7589 78.457 15.7316 78.1758 15.7316C77.7617 15.7316 77.4102 15.7863 77.1211 15.8956C76.832 16.005 76.5938 16.1456 76.4062 16.3175C76.2266 16.4816 76.0938 16.6652 76.0078 16.8683C75.9219 17.0714 75.8789 17.2667 75.8789 17.4542C75.8789 17.6808 75.9141 17.8761 75.9844 18.0402C76.0547 18.2042 76.1758 18.3722 76.3477 18.5441C76.5273 18.7081 76.7695 18.8878 77.0742 19.0831C77.3867 19.2784 77.7773 19.5128 78.2461 19.7863C78.6992 20.0206 79.1758 20.2706 79.6758 20.5363C80.1836 20.8019 80.6484 21.1105 81.0703 21.462C81.4922 21.8058 81.8398 22.2042 82.1133 22.6573C82.3945 23.1027 82.5352 23.6261 82.5352 24.2277C82.5352 24.7355 82.4375 25.2003 82.2422 25.6222C82.0547 26.0441 81.7578 26.4073 81.3516 26.712C80.9531 27.0167 80.4414 27.2511 79.8164 27.4152C79.1992 27.587 78.4648 27.673 77.6133 27.673C77.207 27.673 76.7734 27.6222 76.3125 27.5206C75.8516 27.4191 75.4258 27.2589 75.0352 27.0402C74.6445 26.8136 74.3203 26.5245 74.0625 26.173C73.8047 25.8136 73.6758 25.3761 73.6758 24.8605C73.6758 24.6417 73.7109 24.4308 73.7812 24.2277C73.8516 24.0245 73.9492 23.8448 74.0742 23.6886C74.207 23.5245 74.3672 23.3956 74.5547 23.3019C74.7422 23.2081 74.957 23.1613 75.1992 23.1613C75.4102 23.1613 75.5977 23.2003 75.7617 23.2784C75.9258 23.3488 76.0625 23.4464 76.1719 23.5714C76.2891 23.6886 76.3789 23.8292 76.4414 23.9933C76.5039 24.1573 76.5391 24.3331 76.5469 24.5206C76.5469 24.7394 76.5078 24.9347 76.4297 25.1066C76.3516 25.2706 76.25 25.4073 76.125 25.5167C76 25.6261 75.8555 25.712 75.6914 25.7745C75.5352 25.8292 75.3789 25.8566 75.2227 25.8566C75.1914 25.8566 75.1562 25.8566 75.1172 25.8566C75.0859 25.8566 75.0547 25.8527 75.0234 25.8448V25.8683C75.0938 26.0245 75.1992 26.1769 75.3398 26.3253C75.4805 26.4738 75.6562 26.6066 75.8672 26.7238C76.0859 26.8409 76.3359 26.9386 76.6172 27.0167C76.9062 27.087 77.2227 27.1222 77.5664 27.1222ZM83.4023 16.0831V15.5792H85.3945V12.9894L86.4023 12.8839L88.0547 12.4503L88.2773 12.7902V15.5792H90.8438V16.0831L88.2773 16.1886V24.4386C88.2773 24.9152 88.332 25.3136 88.4414 25.6339C88.5586 25.9464 88.707 26.1613 88.8867 26.2784C89.0742 26.3956 89.2227 26.4698 89.332 26.5011C89.4492 26.5323 89.5703 26.548 89.6953 26.548C89.9375 26.548 90.168 26.4972 90.3867 26.3956C90.6133 26.2863 90.8164 26.13 90.9961 25.9269C91.1836 25.7238 91.3359 25.5402 91.4531 25.3761C91.5703 25.2042 91.7031 24.9972 91.8516 24.755L92.3555 25.0597C91.9414 25.7472 91.582 26.2472 91.2773 26.5597C90.5352 27.3175 89.6797 27.6964 88.7109 27.6964C88.3438 27.6964 88.0156 27.6691 87.7266 27.6144C87.4453 27.5675 87.1523 27.462 86.8477 27.298C86.543 27.1339 86.2891 26.9152 86.0859 26.6417C85.8828 26.3605 85.7148 25.9777 85.582 25.4933C85.457 25.0011 85.3945 24.4269 85.3945 23.7706V16.1886L83.4023 16.0831ZM93.0352 27.3448V26.8175L94.8398 26.7003V11.2667L93.0352 11.1495V10.6222H99.6445V11.1495L97.8398 11.2667V26.5831C99.1133 26.6691 99.9844 26.712 100.453 26.712C100.883 26.712 101.258 26.7003 101.578 26.6769C101.906 26.6534 102.203 26.6027 102.469 26.5245C102.742 26.4464 102.969 26.3644 103.148 26.2784C103.336 26.1925 103.512 26.0597 103.676 25.88C103.84 25.6925 103.973 25.5128 104.074 25.3409C104.176 25.1613 104.309 24.8175 104.473 24.3097C104.637 23.7941 104.781 23.212 104.906 22.5636H105.305V27.3448H93.0352ZM106.688 24.8019C106.688 24.4191 106.746 24.0519 106.863 23.7003C106.988 23.3409 107.188 22.9972 107.461 22.6691C107.734 22.3409 108.07 22.0558 108.469 21.8136C108.867 21.5714 109.359 21.38 109.945 21.2394C110.539 21.0909 111.195 21.0167 111.914 21.0167C112.297 21.0167 112.66 21.0323 113.004 21.0636V19.4464C113.004 18.9308 112.992 18.5128 112.969 18.1925C112.953 17.8722 112.906 17.5441 112.828 17.2081C112.75 16.8644 112.637 16.6027 112.488 16.423C112.348 16.2355 112.145 16.0831 111.879 15.9659C111.621 15.8409 111.305 15.7784 110.93 15.7784C109.789 15.7784 108.957 16.2277 108.434 17.1261V17.173C108.566 17.1495 108.688 17.1378 108.797 17.1378C109.203 17.1378 109.523 17.2628 109.758 17.5128C109.992 17.7628 110.109 18.1222 110.109 18.5909C110.109 18.9972 109.969 19.3409 109.688 19.6222C109.406 19.8956 109.055 20.0323 108.633 20.0323C108.172 20.0323 107.809 19.8761 107.543 19.5636C107.277 19.2511 107.145 18.8839 107.145 18.462C107.145 17.5402 107.566 16.7706 108.41 16.1534C109.262 15.5363 110.238 15.2277 111.34 15.2277C112.121 15.2277 112.785 15.3097 113.332 15.4738C113.887 15.6378 114.328 15.8566 114.656 16.13C114.984 16.3956 115.238 16.7628 115.418 17.2316C115.605 17.6925 115.727 18.1652 115.781 18.6495C115.844 19.1339 115.875 19.7277 115.875 20.4308V26.7472L117.082 26.8644V27.3448H113.355L113.027 25.4933H113.004C112.621 26.2355 112.156 26.7902 111.609 27.1573C111.07 27.5167 110.414 27.6964 109.641 27.6964C108.688 27.6964 107.957 27.4113 107.449 26.8409C106.941 26.2706 106.688 25.5909 106.688 24.8019ZM109.523 24.5558C109.523 25.1808 109.641 25.6886 109.875 26.0792C110.109 26.462 110.453 26.6534 110.906 26.6534C111.438 26.6534 111.918 26.3214 112.348 25.6573C112.785 24.9933 113.004 24.1808 113.004 23.2198V21.6027C112.691 21.5636 112.438 21.5441 112.242 21.5441C111.836 21.5441 111.473 21.5988 111.152 21.7081C110.84 21.8175 110.59 21.9659 110.402 22.1534C110.215 22.3409 110.059 22.5402 109.934 22.7511C109.809 22.9542 109.719 23.1808 109.664 23.4308C109.609 23.6808 109.57 23.8878 109.547 24.0519C109.531 24.2159 109.523 24.3839 109.523 24.5558ZM118.289 16.0363L120.738 15.7784L122.391 15.3448L122.602 15.6847L122.555 17.2667H122.602C123.531 15.9073 124.734 15.2277 126.211 15.2277C126.492 15.2277 126.762 15.2511 127.02 15.298C127.277 15.3448 127.562 15.4503 127.875 15.6144C128.188 15.7784 128.457 15.9933 128.684 16.2589C128.91 16.5245 129.102 16.9034 129.258 17.3956C129.414 17.8878 129.492 18.462 129.492 19.1183V26.7472L130.688 26.8644V27.3448H125.414V26.8644L126.609 26.7472V18.7784C126.609 17.1144 126.074 16.2823 125.004 16.2823C124.301 16.2823 123.723 16.6027 123.27 17.2433C122.824 17.8839 122.602 18.7238 122.602 19.7628V26.7472L123.809 26.8644V27.3448H118.523V26.8644L119.73 26.7472V16.4933L118.312 16.5167L118.289 16.0363ZM132.234 21.755C132.234 21.0753 132.297 20.423 132.422 19.798C132.547 19.173 132.746 18.5831 133.02 18.0284C133.293 17.4659 133.629 16.9816 134.027 16.5753C134.426 16.1613 134.914 15.8331 135.492 15.5909C136.078 15.3488 136.723 15.2277 137.426 15.2277C137.723 15.2277 138.07 15.2784 138.469 15.38C138.875 15.4738 139.199 15.6222 139.441 15.8253V11.548H138V11.0675L140.449 10.8097L142.102 10.3761L142.324 10.7159V26.7472L143.52 26.8644V27.3448H139.605L139.453 25.6808H139.43C138.977 26.4542 138.504 26.9855 138.012 27.2745C137.52 27.5558 136.93 27.6964 136.242 27.6964C136.062 27.6964 135.871 27.6769 135.668 27.6378C135.465 27.5988 135.23 27.5206 134.965 27.4034C134.699 27.2941 134.441 27.1534 134.191 26.9816C133.949 26.8019 133.707 26.5558 133.465 26.2433C133.223 25.9308 133.012 25.5753 132.832 25.1769C132.652 24.7784 132.508 24.2863 132.398 23.7003C132.289 23.1066 132.234 22.4581 132.234 21.755ZM135.234 21.6378C135.234 25.0206 135.934 26.712 137.332 26.712C137.887 26.712 138.375 26.38 138.797 25.7159C139.227 25.0519 139.441 24.3409 139.441 23.5831V16.3995C138.996 16.0636 138.5 15.8956 137.953 15.8956C137.594 15.8956 137.27 15.9698 136.98 16.1183C136.699 16.2667 136.465 16.4542 136.277 16.6808C136.09 16.9073 135.93 17.1964 135.797 17.548C135.664 17.8917 135.562 18.2238 135.492 18.5441C135.422 18.8644 135.363 19.2316 135.316 19.6456C135.277 20.0597 135.254 20.4073 135.246 20.6886C135.238 20.9698 135.234 21.2863 135.234 21.6378Z" fill="#B99755"/>
<defs>
<clipPath id="clip0_1_118784">
<rect width="40" height="30.3448" fill="white"/>
</clipPath>
</defs>
</svg>
