<svg width="146" height="31" viewBox="0 0 146 31" fill="none" xmlns="http://www.w3.org/2000/svg">
<g clip-path="url(#clip0_1_123858)">
<path d="M24.9858 3.38283V1.82525L19.1973 -0.0126953V1.62277L24.9858 3.38283Z" fill="#B99755"/>
<path d="M20.3939 1.39258V30.3449H5.66602V3.50155L20.3939 1.39258Z" fill="#0F0F0F"/>
<path d="M7.26562 3.27404V1.74449L18.796 0V1.623L7.26562 3.27404Z" fill="#B99755"/>
<path d="M19.5231 2.99023L6.53711 4.75653V7.0306L19.5231 5.42318V2.99023Z" fill="white"/>
<path d="M19.5231 6.04297L6.53711 7.6099V8.45722L19.5231 6.94948V6.04297Z" fill="#777777"/>
<path d="M13.7604 8.2207L12.3047 8.38581V13.6722L13.7604 13.5476V8.2207Z" fill="#777777"/>
<path d="M19.5231 13.6729L6.53711 14.7476V15.5949L19.5231 14.5794V13.6729Z" fill="#777777"/>
<path d="M13.7604 15.6318L12.3047 15.7409V21.0273L13.7604 20.9588V15.6318Z" fill="#777777"/>
<path d="M19.5231 21.2988L6.53711 21.8845V22.7318L19.5231 22.2053V21.2988Z" fill="#777777"/>
<path d="M13.7604 23.04L12.3047 23.0961V28.3825L13.7604 28.367V23.04Z" fill="#777777"/>
<path d="M11.8373 23.1113L6.53711 23.3107V28.4414L11.8373 28.3853V23.1113Z" fill="white"/>
<path d="M19.5228 22.8252L14.2227 23.0215V28.364L19.5228 28.3079V22.8252Z" fill="white"/>
<path d="M11.8373 15.7754L6.53711 16.1741V21.3048L11.8373 21.0494V15.7754Z" fill="white"/>
<path d="M19.5228 15.1953L14.2227 15.5941V20.9334L19.5228 20.6811V15.1953Z" fill="white"/>
<path d="M11.8373 8.43945L6.53711 9.04068V14.1682L11.8373 13.7134V8.43945Z" fill="white"/>
<path d="M19.5228 7.57031L14.2227 8.16842V13.5109L19.5228 13.053V7.57031Z" fill="white"/>
<path d="M5.35225 16.5762V22.2458C3.94012 22.7598 0.761274 23.8439 0.761274 24.3329L0.5 18.6041C0.5 17.274 3.5762 16.9157 5.35225 16.5762Z" fill="#0F0F0F"/>
<path d="M20.7988 1.39258V30.3449H27.7693V3.50155L20.7988 1.39258Z" fill="#0F0F0F"/>
<path d="M21.6699 3.12402L26.8985 4.62553V6.91206L21.6699 5.54451V3.12402Z" fill="white"/>
<path d="M21.6699 6.1582L26.8985 7.49149V8.34505L21.6699 7.0616V6.1582Z" fill="#777777"/>
<path d="M21.6699 13.75L26.8985 14.6659V15.5194L21.6699 14.6534V13.75Z" fill="#777777"/>
<path d="M21.6699 21.3418L26.8985 21.8402V22.6907L21.6699 22.2452V21.3418Z" fill="#777777"/>
<path d="M21.5977 22.8564L26.8978 23.2739V28.4326L21.5977 28.3173V22.8564Z" fill="white"/>
<path d="M21.5977 15.2578L26.8978 16.102V21.2576L21.5977 20.7187V15.2578Z" fill="white"/>
<path d="M21.5977 7.66309L26.8978 8.92784V14.0866L21.5977 13.124V7.66309Z" fill="white"/>
<path d="M2.84837 19.6565C9.55443 20.1829 10.5311 20.1113 13.0319 19.6378C17.2776 18.8372 24.9852 16.9899 29.4331 14.1894C29.0288 13.5663 28.4067 12.5383 28.4067 12.5383L40.5031 11.2549L32.3258 21.2483C32.3258 21.2483 31.9743 20.3449 31.682 19.7157C26.9861 22.4526 21.8545 24.3589 16.5124 25.351C12.2895 26.2161 7.95199 26.3687 3.67885 25.8027C1.25894 25.4912 0.842145 24.6221 0.761274 24.3323L0.5 18.6036C0.583981 19.2141 1.93079 19.5848 2.84837 19.6565Z" fill="#B99755"/>
</g>
<path d="M46.3086 11.1494V10.6221H48.8164L58.8711 22.8096H58.8945L58.7305 11.2666L56.9375 11.1494V10.6221H61.2734V11.1494L59.4688 11.2666L59.5977 27.5791H58.8828L48.8281 15.3564H48.8047L48.9688 26.7002L50.7617 26.8174V27.3447H46.4258V26.8174L48.2305 26.7002L48.1016 11.2666L46.3086 11.1494ZM62.5977 21.4619C62.5977 20.8525 62.6562 20.2588 62.7734 19.6807C62.8906 19.0947 63.082 18.5322 63.3477 17.9932C63.6133 17.4541 63.9375 16.9814 64.3203 16.5752C64.7031 16.1689 65.1758 15.8447 65.7383 15.6025C66.3086 15.3525 66.9375 15.2275 67.625 15.2275C68.2734 15.2275 68.8555 15.3213 69.3711 15.5088C69.8867 15.6885 70.3164 15.9424 70.6602 16.2705C71.0039 16.5986 71.2891 17.001 71.5156 17.4775C71.7422 17.9463 71.9023 18.458 71.9961 19.0127C72.0977 19.5596 72.1484 20.1611 72.1484 20.8174L71.832 21.1104H65.5977V21.8252C65.5977 25.2314 66.5664 26.9346 68.5039 26.9346C69.8789 26.9346 70.9766 26.2471 71.7969 24.8721L72.2539 25.1533C71.2461 26.8486 69.8125 27.6963 67.9531 27.6963C66.1562 27.6963 64.8125 27.1416 63.9219 26.0322C63.0391 24.9229 62.5977 23.3994 62.5977 21.4619ZM65.5977 20.583L69.3828 20.4307C69.4062 20.0322 69.418 19.6494 69.418 19.2822C69.418 18.1494 69.2812 17.2783 69.0078 16.6689C68.7422 16.0596 68.2969 15.7549 67.6719 15.7549C67.2969 15.7549 66.9727 15.8799 66.6992 16.1299C66.4336 16.3721 66.2266 16.7236 66.0781 17.1846C65.9297 17.6455 65.8164 18.1494 65.7383 18.6963C65.668 19.2354 65.6211 19.8643 65.5977 20.583ZM78.0664 27.1221C78.957 27.1221 79.6133 26.958 80.0352 26.6299C80.4648 26.3018 80.6797 25.8916 80.6797 25.3994C80.6797 25.1416 80.6367 24.915 80.5508 24.7197C80.4727 24.5166 80.3398 24.3252 80.1523 24.1455C79.9727 23.958 79.7305 23.7705 79.4258 23.583C79.1289 23.3877 78.7578 23.1689 78.3125 22.9268C77.9219 22.7002 77.5078 22.4658 77.0703 22.2236C76.6328 21.9736 76.2266 21.6885 75.8516 21.3682C75.4844 21.04 75.1758 20.6611 74.9258 20.2314C74.6836 19.8018 74.5625 19.2861 74.5625 18.6846C74.5625 18.1533 74.6641 17.6729 74.8672 17.2432C75.0703 16.8135 75.3516 16.4502 75.7109 16.1533C76.0781 15.8486 76.5117 15.6143 77.0117 15.4502C77.5195 15.2861 78.0742 15.2041 78.6758 15.2041C79.1289 15.2041 79.582 15.2627 80.0352 15.3799C80.4961 15.4893 80.9102 15.6572 81.2773 15.8838C81.6445 16.1104 81.9414 16.3916 82.168 16.7275C82.3945 17.0635 82.5078 17.4541 82.5078 17.8994C82.5078 18.0713 82.4766 18.2393 82.4141 18.4033C82.3594 18.5674 82.2734 18.7158 82.1562 18.8486C82.0391 18.9814 81.8945 19.0908 81.7227 19.1768C81.5586 19.2549 81.3672 19.2939 81.1484 19.2939C80.6953 19.2939 80.3555 19.1689 80.1289 18.9189C79.9023 18.6689 79.7891 18.3643 79.7891 18.0049C79.7891 17.7783 79.8203 17.5869 79.8828 17.4307C79.9453 17.2666 80.0273 17.1338 80.1289 17.0322C80.2383 16.9229 80.3594 16.8447 80.4922 16.7979C80.6328 16.7432 80.7734 16.7158 80.9141 16.7158H81.0195V16.6924C80.9414 16.5674 80.8281 16.4502 80.6797 16.3408C80.5312 16.2236 80.3555 16.1221 80.1523 16.0361C79.9492 15.9424 79.7227 15.8682 79.4727 15.8135C79.2227 15.7588 78.957 15.7314 78.6758 15.7314C78.2617 15.7314 77.9102 15.7861 77.6211 15.8955C77.332 16.0049 77.0938 16.1455 76.9062 16.3174C76.7266 16.4814 76.5938 16.665 76.5078 16.8682C76.4219 17.0713 76.3789 17.2666 76.3789 17.4541C76.3789 17.6807 76.4141 17.876 76.4844 18.04C76.5547 18.2041 76.6758 18.3721 76.8477 18.5439C77.0273 18.708 77.2695 18.8877 77.5742 19.083C77.8867 19.2783 78.2773 19.5127 78.7461 19.7861C79.1992 20.0205 79.6758 20.2705 80.1758 20.5361C80.6836 20.8018 81.1484 21.1104 81.5703 21.4619C81.9922 21.8057 82.3398 22.2041 82.6133 22.6572C82.8945 23.1025 83.0352 23.626 83.0352 24.2275C83.0352 24.7354 82.9375 25.2002 82.7422 25.6221C82.5547 26.0439 82.2578 26.4072 81.8516 26.7119C81.4531 27.0166 80.9414 27.251 80.3164 27.415C79.6992 27.5869 78.9648 27.6729 78.1133 27.6729C77.707 27.6729 77.2734 27.6221 76.8125 27.5205C76.3516 27.4189 75.9258 27.2588 75.5352 27.04C75.1445 26.8135 74.8203 26.5244 74.5625 26.1729C74.3047 25.8135 74.1758 25.376 74.1758 24.8604C74.1758 24.6416 74.2109 24.4307 74.2812 24.2275C74.3516 24.0244 74.4492 23.8447 74.5742 23.6885C74.707 23.5244 74.8672 23.3955 75.0547 23.3018C75.2422 23.208 75.457 23.1611 75.6992 23.1611C75.9102 23.1611 76.0977 23.2002 76.2617 23.2783C76.4258 23.3486 76.5625 23.4463 76.6719 23.5713C76.7891 23.6885 76.8789 23.8291 76.9414 23.9932C77.0039 24.1572 77.0391 24.333 77.0469 24.5205C77.0469 24.7393 77.0078 24.9346 76.9297 25.1064C76.8516 25.2705 76.75 25.4072 76.625 25.5166C76.5 25.626 76.3555 25.7119 76.1914 25.7744C76.0352 25.8291 75.8789 25.8564 75.7227 25.8564C75.6914 25.8564 75.6562 25.8564 75.6172 25.8564C75.5859 25.8564 75.5547 25.8525 75.5234 25.8447V25.8682C75.5938 26.0244 75.6992 26.1768 75.8398 26.3252C75.9805 26.4736 76.1562 26.6064 76.3672 26.7236C76.5859 26.8408 76.8359 26.9385 77.1172 27.0166C77.4062 27.0869 77.7227 27.1221 78.0664 27.1221ZM83.9023 16.083V15.5791H85.8945V12.9893L86.9023 12.8838L88.5547 12.4502L88.7773 12.79V15.5791H91.3438V16.083L88.7773 16.1885V24.4385C88.7773 24.915 88.832 25.3135 88.9414 25.6338C89.0586 25.9463 89.207 26.1611 89.3867 26.2783C89.5742 26.3955 89.7227 26.4697 89.832 26.501C89.9492 26.5322 90.0703 26.5479 90.1953 26.5479C90.4375 26.5479 90.668 26.4971 90.8867 26.3955C91.1133 26.2861 91.3164 26.1299 91.4961 25.9268C91.6836 25.7236 91.8359 25.54 91.9531 25.376C92.0703 25.2041 92.2031 24.9971 92.3516 24.7549L92.8555 25.0596C92.4414 25.7471 92.082 26.2471 91.7773 26.5596C91.0352 27.3174 90.1797 27.6963 89.2109 27.6963C88.8438 27.6963 88.5156 27.6689 88.2266 27.6143C87.9453 27.5674 87.6523 27.4619 87.3477 27.2979C87.043 27.1338 86.7891 26.915 86.5859 26.6416C86.3828 26.3604 86.2148 25.9775 86.082 25.4932C85.957 25.001 85.8945 24.4268 85.8945 23.7705V16.1885L83.9023 16.083ZM93.5352 27.3447V26.8174L95.3398 26.7002V11.2666L93.5352 11.1494V10.6221H100.145V11.1494L98.3398 11.2666V26.583C99.6133 26.6689 100.484 26.7119 100.953 26.7119C101.383 26.7119 101.758 26.7002 102.078 26.6768C102.406 26.6533 102.703 26.6025 102.969 26.5244C103.242 26.4463 103.469 26.3643 103.648 26.2783C103.836 26.1924 104.012 26.0596 104.176 25.8799C104.34 25.6924 104.473 25.5127 104.574 25.3408C104.676 25.1611 104.809 24.8174 104.973 24.3096C105.137 23.7939 105.281 23.2119 105.406 22.5635H105.805V27.3447H93.5352ZM107.188 24.8018C107.188 24.4189 107.246 24.0518 107.363 23.7002C107.488 23.3408 107.688 22.9971 107.961 22.6689C108.234 22.3408 108.57 22.0557 108.969 21.8135C109.367 21.5713 109.859 21.3799 110.445 21.2393C111.039 21.0908 111.695 21.0166 112.414 21.0166C112.797 21.0166 113.16 21.0322 113.504 21.0635V19.4463C113.504 18.9307 113.492 18.5127 113.469 18.1924C113.453 17.8721 113.406 17.5439 113.328 17.208C113.25 16.8643 113.137 16.6025 112.988 16.4229C112.848 16.2354 112.645 16.083 112.379 15.9658C112.121 15.8408 111.805 15.7783 111.43 15.7783C110.289 15.7783 109.457 16.2275 108.934 17.126V17.1729C109.066 17.1494 109.188 17.1377 109.297 17.1377C109.703 17.1377 110.023 17.2627 110.258 17.5127C110.492 17.7627 110.609 18.1221 110.609 18.5908C110.609 18.9971 110.469 19.3408 110.188 19.6221C109.906 19.8955 109.555 20.0322 109.133 20.0322C108.672 20.0322 108.309 19.876 108.043 19.5635C107.777 19.251 107.645 18.8838 107.645 18.4619C107.645 17.54 108.066 16.7705 108.91 16.1533C109.762 15.5361 110.738 15.2275 111.84 15.2275C112.621 15.2275 113.285 15.3096 113.832 15.4736C114.387 15.6377 114.828 15.8564 115.156 16.1299C115.484 16.3955 115.738 16.7627 115.918 17.2314C116.105 17.6924 116.227 18.165 116.281 18.6494C116.344 19.1338 116.375 19.7275 116.375 20.4307V26.7471L117.582 26.8643V27.3447H113.855L113.527 25.4932H113.504C113.121 26.2354 112.656 26.79 112.109 27.1572C111.57 27.5166 110.914 27.6963 110.141 27.6963C109.188 27.6963 108.457 27.4111 107.949 26.8408C107.441 26.2705 107.188 25.5908 107.188 24.8018ZM110.023 24.5557C110.023 25.1807 110.141 25.6885 110.375 26.0791C110.609 26.4619 110.953 26.6533 111.406 26.6533C111.938 26.6533 112.418 26.3213 112.848 25.6572C113.285 24.9932 113.504 24.1807 113.504 23.2197V21.6025C113.191 21.5635 112.938 21.5439 112.742 21.5439C112.336 21.5439 111.973 21.5986 111.652 21.708C111.34 21.8174 111.09 21.9658 110.902 22.1533C110.715 22.3408 110.559 22.54 110.434 22.751C110.309 22.9541 110.219 23.1807 110.164 23.4307C110.109 23.6807 110.07 23.8877 110.047 24.0518C110.031 24.2158 110.023 24.3838 110.023 24.5557ZM118.789 16.0361L121.238 15.7783L122.891 15.3447L123.102 15.6846L123.055 17.2666H123.102C124.031 15.9072 125.234 15.2275 126.711 15.2275C126.992 15.2275 127.262 15.251 127.52 15.2979C127.777 15.3447 128.062 15.4502 128.375 15.6143C128.688 15.7783 128.957 15.9932 129.184 16.2588C129.41 16.5244 129.602 16.9033 129.758 17.3955C129.914 17.8877 129.992 18.4619 129.992 19.1182V26.7471L131.188 26.8643V27.3447H125.914V26.8643L127.109 26.7471V18.7783C127.109 17.1143 126.574 16.2822 125.504 16.2822C124.801 16.2822 124.223 16.6025 123.77 17.2432C123.324 17.8838 123.102 18.7236 123.102 19.7627V26.7471L124.309 26.8643V27.3447H119.023V26.8643L120.23 26.7471V16.4932L118.812 16.5166L118.789 16.0361ZM132.734 21.7549C132.734 21.0752 132.797 20.4229 132.922 19.7979C133.047 19.1729 133.246 18.583 133.52 18.0283C133.793 17.4658 134.129 16.9814 134.527 16.5752C134.926 16.1611 135.414 15.833 135.992 15.5908C136.578 15.3486 137.223 15.2275 137.926 15.2275C138.223 15.2275 138.57 15.2783 138.969 15.3799C139.375 15.4736 139.699 15.6221 139.941 15.8252V11.5479H138.5V11.0674L140.949 10.8096L142.602 10.376L142.824 10.7158V26.7471L144.02 26.8643V27.3447H140.105L139.953 25.6807H139.93C139.477 26.4541 139.004 26.9854 138.512 27.2744C138.02 27.5557 137.43 27.6963 136.742 27.6963C136.562 27.6963 136.371 27.6768 136.168 27.6377C135.965 27.5986 135.73 27.5205 135.465 27.4033C135.199 27.2939 134.941 27.1533 134.691 26.9814C134.449 26.8018 134.207 26.5557 133.965 26.2432C133.723 25.9307 133.512 25.5752 133.332 25.1768C133.152 24.7783 133.008 24.2861 132.898 23.7002C132.789 23.1064 132.734 22.458 132.734 21.7549ZM135.734 21.6377C135.734 25.0205 136.434 26.7119 137.832 26.7119C138.387 26.7119 138.875 26.3799 139.297 25.7158C139.727 25.0518 139.941 24.3408 139.941 23.583V16.3994C139.496 16.0635 139 15.8955 138.453 15.8955C138.094 15.8955 137.77 15.9697 137.48 16.1182C137.199 16.2666 136.965 16.4541 136.777 16.6807C136.59 16.9072 136.43 17.1963 136.297 17.5479C136.164 17.8916 136.062 18.2236 135.992 18.5439C135.922 18.8643 135.863 19.2314 135.816 19.6455C135.777 20.0596 135.754 20.4072 135.746 20.6885C135.738 20.9697 135.734 21.2861 135.734 21.6377Z" fill="#0F0F0F"/>
<defs>
<clipPath id="clip0_1_123858">
<rect width="40" height="30.3448" fill="white" transform="translate(0.5)"/>
</clipPath>
</defs>
</svg>
