<svg width="40" height="31" viewBox="0 0 40 31" fill="none" xmlns="http://www.w3.org/2000/svg">
<g clip-path="url(#clip0_1_124121)">
<path d="M24.476 3.38283V1.82525L18.6875 -0.0126953V1.62277L24.476 3.38283Z" fill="#0F0F0F"/>
<path d="M19.8841 1.39258V30.3449H5.15625V3.50155L19.8841 1.39258Z" fill="#0F0F0F"/>
<path d="M6.75586 3.27404V1.74449L18.2862 0V1.623L6.75586 3.27404Z" fill="#0F0F0F"/>
<path d="M19.0133 2.99023L6.02734 4.75653V7.0306L19.0133 5.42318V2.99023Z" fill="white"/>
<path d="M19.0133 6.04297L6.02734 7.6099V8.45722L19.0133 6.94948V6.04297Z" fill="#777777"/>
<path d="M13.2506 8.2207L11.7949 8.38581V13.6722L13.2506 13.5476V8.2207Z" fill="#777777"/>
<path d="M19.0133 13.6729L6.02734 14.7476V15.5949L19.0133 14.5794V13.6729Z" fill="#777777"/>
<path d="M13.2506 15.6318L11.7949 15.7409V21.0273L13.2506 20.9588V15.6318Z" fill="#777777"/>
<path d="M19.0133 21.2988L6.02734 21.8845V22.7318L19.0133 22.2053V21.2988Z" fill="#777777"/>
<path d="M13.2506 23.04L11.7949 23.0961V28.3825L13.2506 28.367V23.04Z" fill="#777777"/>
<path d="M11.3275 23.1113L6.02734 23.3107V28.4414L11.3275 28.3853V23.1113Z" fill="white"/>
<path d="M19.013 22.8252L13.7129 23.0215V28.364L19.013 28.3079V22.8252Z" fill="white"/>
<path d="M11.3275 15.7754L6.02734 16.1741V21.3048L11.3275 21.0494V15.7754Z" fill="white"/>
<path d="M19.013 15.1953L13.7129 15.5941V20.9334L19.013 20.6811V15.1953Z" fill="white"/>
<path d="M11.3275 8.43945L6.02734 9.04068V14.1682L11.3275 13.7134V8.43945Z" fill="white"/>
<path d="M19.013 7.57031L13.7129 8.16842V13.5109L19.013 13.053V7.57031Z" fill="white"/>
<path d="M4.84249 16.5762V22.2458C3.43036 22.7598 0.251508 23.8439 0.251508 24.3329L-0.00976562 18.6041C-0.00976562 17.274 3.06644 16.9157 4.84249 16.5762Z" fill="#0F0F0F"/>
<path d="M20.2891 1.39258V30.3449H27.2595V3.50155L20.2891 1.39258Z" fill="#0F0F0F"/>
<path d="M21.1602 3.12402L26.3888 4.62553V6.91206L21.1602 5.54451V3.12402Z" fill="white"/>
<path d="M21.1602 6.1582L26.3888 7.49149V8.34505L21.1602 7.0616V6.1582Z" fill="#777777"/>
<path d="M21.1602 13.75L26.3888 14.6659V15.5194L21.1602 14.6534V13.75Z" fill="#777777"/>
<path d="M21.1602 21.3418L26.3888 21.8402V22.6907L21.1602 22.2452V21.3418Z" fill="#777777"/>
<path d="M21.0879 22.8564L26.388 23.2739V28.4326L21.0879 28.3173V22.8564Z" fill="white"/>
<path d="M21.0879 15.2578L26.388 16.102V21.2576L21.0879 20.7187V15.2578Z" fill="white"/>
<path d="M21.0879 7.66309L26.388 8.92784V14.0866L21.0879 13.124V7.66309Z" fill="white"/>
<path d="M2.3386 19.6565C9.04467 20.1829 10.0213 20.1113 12.5221 19.6378C16.7678 18.8372 24.4755 16.9899 28.9234 14.1894C28.519 13.5663 27.8969 12.5383 27.8969 12.5383L39.9933 11.2549L31.816 21.2483C31.816 21.2483 31.4646 20.3449 31.1722 19.7157C26.4763 22.4526 21.3448 24.3589 16.0027 25.351C11.7798 26.2161 7.44223 26.3687 3.16908 25.8027C0.749177 25.4912 0.332379 24.6221 0.251509 24.3323L-0.00976562 18.6036C0.0742157 19.2141 1.42103 19.5848 2.3386 19.6565Z" fill="#0F0F0F"/>
</g>
<defs>
<clipPath id="clip0_1_124121">
<rect width="40" height="30.3448" fill="white" transform="translate(-0.00976562)"/>
</clipPath>
</defs>
</svg>
