<svg width="41" height="31" viewBox="0 0 41 31" fill="none" xmlns="http://www.w3.org/2000/svg">
<g id="Layer_1" clip-path="url(#clip0_3361_28)">
<path id="Vector" d="M24.9858 3.38283V1.82525L19.1973 -0.0126953V1.62277L24.9858 3.38283Z" fill="#B99755"/>
<path id="Vector_2" d="M20.3939 1.39258V30.3449H5.66602V3.50155L20.3939 1.39258Z" fill="#0F0F0F"/>
<path id="Vector_3" d="M7.26562 3.27404V1.74449L18.796 0V1.623L7.26562 3.27404Z" fill="#B99755"/>
<path id="Vector_4" d="M19.5231 2.99023L6.53711 4.75653V7.0306L19.5231 5.42318V2.99023Z" fill="white"/>
<path id="Vector_5" d="M19.5231 6.04297L6.53711 7.6099V8.45722L19.5231 6.94948V6.04297Z" fill="#777777"/>
<path id="Vector_6" d="M13.7604 8.2207L12.3047 8.38581V13.6722L13.7604 13.5476V8.2207Z" fill="#777777"/>
<path id="Vector_7" d="M19.5231 13.6729L6.53711 14.7476V15.5949L19.5231 14.5794V13.6729Z" fill="#777777"/>
<path id="Vector_8" d="M13.7604 15.6318L12.3047 15.7409V21.0273L13.7604 20.9588V15.6318Z" fill="#777777"/>
<path id="Vector_9" d="M19.5231 21.2988L6.53711 21.8845V22.7318L19.5231 22.2053V21.2988Z" fill="#777777"/>
<path id="Vector_10" d="M13.7604 23.04L12.3047 23.0961V28.3825L13.7604 28.367V23.04Z" fill="#777777"/>
<path id="Vector_11" d="M11.8373 23.1113L6.53711 23.3107V28.4414L11.8373 28.3853V23.1113Z" fill="white"/>
<path id="Vector_12" d="M19.5228 22.8252L14.2227 23.0215V28.364L19.5228 28.3079V22.8252Z" fill="white"/>
<path id="Vector_13" d="M11.8373 15.7754L6.53711 16.1741V21.3048L11.8373 21.0494V15.7754Z" fill="white"/>
<path id="Vector_14" d="M19.5228 15.1953L14.2227 15.5941V20.9334L19.5228 20.6811V15.1953Z" fill="white"/>
<path id="Vector_15" d="M11.8373 8.43945L6.53711 9.04068V14.1682L11.8373 13.7134V8.43945Z" fill="white"/>
<path id="Vector_16" d="M19.5228 7.57031L14.2227 8.16842V13.5109L19.5228 13.053V7.57031Z" fill="white"/>
<path id="Vector_17" d="M5.35225 16.5762V22.2458C3.94012 22.7598 0.761274 23.8439 0.761274 24.3329L0.5 18.6041C0.5 17.274 3.5762 16.9157 5.35225 16.5762Z" fill="#0F0F0F"/>
<path id="Vector_18" d="M20.7988 1.39258V30.3449H27.7693V3.50155L20.7988 1.39258Z" fill="#0F0F0F"/>
<path id="Vector_19" d="M21.6699 3.12402L26.8985 4.62553V6.91206L21.6699 5.54451V3.12402Z" fill="white"/>
<path id="Vector_20" d="M21.6699 6.1582L26.8985 7.49149V8.34505L21.6699 7.0616V6.1582Z" fill="#777777"/>
<path id="Vector_21" d="M21.6699 13.75L26.8985 14.6659V15.5194L21.6699 14.6534V13.75Z" fill="#777777"/>
<path id="Vector_22" d="M21.6699 21.3418L26.8985 21.8402V22.6907L21.6699 22.2452V21.3418Z" fill="#777777"/>
<path id="Vector_23" d="M21.5977 22.8564L26.8978 23.2739V28.4326L21.5977 28.3173V22.8564Z" fill="white"/>
<path id="Vector_24" d="M21.5977 15.2578L26.8978 16.102V21.2576L21.5977 20.7187V15.2578Z" fill="white"/>
<path id="Vector_25" d="M21.5977 7.66309L26.8978 8.92784V14.0866L21.5977 13.124V7.66309Z" fill="white"/>
<path id="Vector_26" d="M2.84837 19.6565C9.55443 20.1829 10.5311 20.1113 13.0319 19.6378C17.2776 18.8372 24.9852 16.9899 29.4331 14.1894C29.0288 13.5663 28.4067 12.5383 28.4067 12.5383L40.5031 11.2549L32.3258 21.2483C32.3258 21.2483 31.9743 20.3449 31.682 19.7157C26.9861 22.4526 21.8545 24.3589 16.5124 25.351C12.2895 26.2161 7.95199 26.3687 3.67885 25.8027C1.25894 25.4912 0.842145 24.6221 0.761274 24.3323L0.5 18.6036C0.583981 19.2141 1.93079 19.5848 2.84837 19.6565Z" fill="#B99755"/>
</g>
<defs>
<clipPath id="clip0_3361_28">
<rect width="40" height="30.3448" fill="white" transform="translate(0.5)"/>
</clipPath>
</defs>
</svg>
